<?xml version="1.0" encoding="utf-8"?>
<!-- Generator: Adobe Illustrator 24.1.2, SVG Export Plug-In . SVG Version: 6.00 Build 0)  -->
<svg version="1.1" id="Warstwa_3" xmlns="http://www.w3.org/2000/svg" xmlns:xlink="http://www.w3.org/1999/xlink" x="0px" y="0px"
	 viewBox="0 0 430 430" style="enable-background:new 0 0 430 430;" xml:space="preserve">
<style type="text/css">
	.st0{fill:#08a88a;}
	.st1{fill:#121331;}
	.st2{fill:none;stroke:#121331;stroke-width:12;stroke-linecap:round;stroke-linejoin:round;stroke-miterlimit:10;}
	.st3{fill:#08A385;}
</style>
<g>
	<path class="st1" d="M260.96,304.55c-1.54,0-3.07-0.59-4.24-1.76c-2.18-2.18-2.33-5.63-0.44-7.99c0.12-1.96-1.82-9.32-12.36-24.42
		c-9.57-13.71-23.47-29.89-39.13-45.54c-15.66-15.66-31.83-29.55-45.54-39.13c-15.1-10.54-22.45-12.48-24.42-12.36
		c-2.35,1.89-5.81,1.74-7.99-0.44c-2.34-2.34-2.34-6.14,0-8.49c6.05-6.05,17.42-3.17,35.79,9.07
		c15.04,10.02,33.03,25.24,50.65,42.86s32.84,35.61,42.86,50.65c12.24,18.37,15.12,29.74,9.07,35.79
		C264.03,303.97,262.49,304.55,260.96,304.55z"/>
	<path class="st0" d="M323.4,311.23c-3.31,0-6-2.69-6-6c0-28.43-16.76-41.96-30.82-48.31c-28.03-12.65-64.38-6.65-79.48,6.66
		c-2.49,2.19-6.28,1.95-8.47-0.53c-2.19-2.49-1.95-6.28,0.53-8.47c20.45-18.03,62.74-21.97,92.35-8.6
		c24.43,11.03,37.89,32.07,37.89,59.25C329.4,308.54,326.71,311.23,323.4,311.23z"/>
	<path class="st0" d="M170.76,239c-1.01,0-2.04-0.26-2.98-0.8c-2.87-1.65-3.86-5.32-2.21-8.19c14.22-24.75,12.37-76.86-13.04-112.07
		c-12.89-17.86-36.59-37.45-76.33-29.36c-3.25,0.66-6.42-1.43-7.08-4.68c-0.66-3.25,1.44-6.42,4.68-7.08
		c35.9-7.31,67.32,4.8,88.46,34.09c25.83,35.79,32.11,93.07,13.71,125.08C174.86,237.92,172.84,239,170.76,239z"/>
	<path class="st1" d="M260.96,304.55c-1.54,0-3.07-0.58-4.24-1.76c-2.34-2.34-2.35-6.14,0-8.48l0.01-0.01
		c2.34-2.34,6.14-2.34,8.49,0c2.34,2.34,2.34,6.14,0,8.49C264.04,303.96,262.5,304.55,260.96,304.55z"/>
	<path class="st1" d="M131.07,174.65c-1.54,0-3.07-0.58-4.24-1.76c-2.34-2.34-2.35-6.14,0-8.48l0.01-0.01
		c2.34-2.34,6.14-2.34,8.49,0c2.34,2.34,2.34,6.14,0,8.49C134.14,174.07,132.6,174.65,131.07,174.65z"/>
	<path class="st1" d="M265.2,294.31c-2.18-2.18-5.61-2.33-7.96-0.46c-0.07,0-0.14,0.01-0.21,0.02c-2.17,0.01-9.54-2.09-24.24-12.36
		c-13.71-9.57-29.89-23.47-45.54-39.13s-29.55-31.83-39.13-45.54c-10.27-14.72-12.37-22.07-12.36-24.25
		c0.01-0.07,0.01-0.13,0.02-0.2c1.87-2.35,1.72-5.79-0.46-7.96c-2.34-2.34-6.14-2.34-8.49,0c-1.67,1.67-2.63,3.76-2.93,6.28
		L52.2,360.66c-1.83,4.84-0.69,10.13,2.97,13.79c2.51,2.51,5.77,3.83,9.14,3.83c1.55,0,3.12-0.28,4.65-0.86l189.9-71.66
		c2.55-0.29,4.65-1.27,6.34-2.96C267.54,300.45,267.54,296.65,265.2,294.31z M64.72,366.19c-0.15,0.06-0.61,0.23-1.06-0.23
		c-0.46-0.46-0.29-0.91-0.23-1.06l66.1-175.16c1.73,3.21,3.84,6.69,6.36,10.48c10.02,15.04,25.24,33.03,42.86,50.65
		s35.61,32.84,50.65,42.86c3.78,2.52,7.26,4.64,10.46,6.37L64.72,366.19z"/>
	<path class="st0" d="M250.26,202.88c-1.42,0-2.85-0.5-4-1.53c-2.47-2.21-2.68-6-0.47-8.47c7.15-8,17.21-6.02,24.55-4.58
		c7.27,1.43,10.96,1.82,13.3-0.8c2.34-2.62,1.54-6.23-0.69-13.3c-2.25-7.14-5.34-16.92,1.81-24.91c7.15-7.99,17.21-6.02,24.55-4.57
		c7.27,1.43,10.96,1.82,13.29-0.8c2.21-2.47,6-2.68,8.47-0.47c2.47,2.21,2.68,6,0.47,8.47c-7.15,7.99-17.21,6.02-24.55,4.57
		c-7.27-1.43-10.96-1.82-13.29,0.8c-2.34,2.62-1.54,6.23,0.69,13.3c2.25,7.14,5.34,16.92-1.81,24.91s-17.21,6.02-24.55,4.58
		c-7.27-1.43-10.96-1.82-13.29,0.8C253.55,202.2,251.91,202.88,250.26,202.88z"/>
	<path class="st0" d="M223.97,162.21c-3.22,0-5.89-2.56-5.99-5.81c-0.35-10.72,8.3-16.23,14.61-20.26c6.25-3.99,9.18-6.25,9.07-9.76
		c-0.11-3.51-3.19-5.57-9.68-9.15c-6.56-3.61-15.54-8.55-15.89-19.27c-0.35-10.72,8.3-16.23,14.61-20.26
		c6.25-3.99,9.18-6.25,9.07-9.75c-0.11-3.31,2.49-6.08,5.8-6.19c3.3-0.1,6.08,2.49,6.19,5.8c0.35,10.72-8.3,16.23-14.61,20.26
		c-6.25,3.99-9.18,6.25-9.07,9.75c0.11,3.51,3.19,5.58,9.68,9.15c6.56,3.61,15.54,8.55,15.89,19.27
		c0.35,10.72-8.3,16.23-14.61,20.26c-6.25,3.99-9.18,6.25-9.07,9.76c0.11,3.31-2.49,6.08-5.8,6.19
		C224.1,162.2,224.03,162.21,223.97,162.21z"/>
	<path class="st1" d="M178.18,75.97c-1.04,0-2.1-0.27-3.06-0.84c-2.85-1.69-3.78-5.38-2.09-8.22l7.28-12.24
		c1.69-2.85,5.38-3.78,8.22-2.09c2.85,1.69,3.78,5.38,2.09,8.22l-7.28,12.24C182.22,74.92,180.23,75.97,178.18,75.97z"/>
	<path class="st1" d="M305.7,368.73c-2.03,0-4.01-1.03-5.14-2.89c-1.72-2.83-0.82-6.52,2.02-8.24l15.3-9.28
		c2.83-1.72,6.52-0.82,8.24,2.02c1.72,2.83,0.82,6.52-2.02,8.24l-15.3,9.28C307.83,368.45,306.76,368.73,305.7,368.73z"/>
	<path class="st0" d="M365.84,298.74c-1.04,0-2.1-0.27-3.06-0.84c-2.85-1.69-3.78-5.38-2.09-8.22l7.28-12.24
		c1.69-2.85,5.37-3.78,8.22-2.09c2.85,1.69,3.78,5.38,2.09,8.22L371,295.81C369.88,297.69,367.88,298.74,365.84,298.74z"/>
	<path class="st0" d="M56.88,237.11c-1.54,0-3.07-0.59-4.24-1.76c-2.34-2.34-2.34-6.14,0-8.49l10.07-10.07
		c2.34-2.34,6.14-2.34,8.49,0c2.34,2.34,2.34,6.14,0,8.49l-10.07,10.07C59.95,236.52,58.42,237.11,56.88,237.11z"/>
	<path class="st1" d="M338.11,89.48c-1.54,0-3.07-0.59-4.24-1.76L323.8,77.66c-2.34-2.34-2.34-6.14,0-8.49
		c2.34-2.34,6.14-2.34,8.49,0l10.07,10.07c2.34,2.34,2.34,6.14,0,8.49C341.18,88.9,339.65,89.48,338.11,89.48z"/>
	<path class="st0" d="M213.93,368.76c-2.41,0-4.68-1.46-5.6-3.84l-5.14-13.28c-1.2-3.09,0.34-6.57,3.43-7.76
		c3.09-1.2,6.57,0.34,7.76,3.43l5.14,13.28c1.2,3.09-0.34,6.57-3.43,7.76C215.38,368.63,214.65,368.76,213.93,368.76z"/>
	<path class="st1" d="M95.48,150.46c-1.39,0-2.78-0.48-3.91-1.45l-10.79-9.29c-2.51-2.16-2.8-5.95-0.63-8.46
		c2.16-2.51,5.95-2.8,8.46-0.63l10.79,9.29c2.51,2.16,2.8,5.95,0.63,8.46C98.85,149.76,97.17,150.46,95.48,150.46z"/>
	<path class="st1" d="M349.74,218.19c-2.62,0-5.03-1.73-5.77-4.38l-3.86-13.71c-0.9-3.19,0.96-6.5,4.15-7.4
		c3.19-0.9,6.5,0.96,7.4,4.15l3.86,13.71c0.9,3.19-0.96,6.5-4.15,7.4C350.83,218.12,350.28,218.19,349.74,218.19z"/>
</g>
</svg>
