<?xml version="1.0" encoding="utf-8"?>
<!-- Generator: Adobe Illustrator 24.1.2, SVG Export Plug-In . SVG Version: 6.00 Build 0)  -->
<svg version="1.1" id="Warstwa_3" xmlns="http://www.w3.org/2000/svg" xmlns:xlink="http://www.w3.org/1999/xlink" x="0px" y="0px"
	 viewBox="0 0 430 430" style="enable-background:new 0 0 430 430;" xml:space="preserve">
<style type="text/css">
	.st0{fill:#08A789;}
	.st1{fill:#000000;}
	.st2{fill:none;stroke:#000000;stroke-width:12;stroke-linecap:round;stroke-linejoin:round;stroke-miterlimit:10;}
	.st3{fill:#e83a30;}
</style>
<g>
	<path class="st1" d="M354.03,354.43H75.97c-6.88,0-13.04-3.56-16.48-9.52c-3.44-5.96-3.44-13.07,0-19.03l139.03-240.8
		c3.44-5.96,9.6-9.52,16.48-9.52s13.04,3.56,16.48,9.52l0,0l139.03,240.8c3.44,5.96,3.44,13.08,0,19.03
		C367.07,350.88,360.91,354.43,354.03,354.43z M215,87.57c-1.22,0-4.26,0.34-6.09,3.52L69.88,331.88c-1.83,3.17-0.61,5.98,0,7.03
		c0.61,1.06,2.43,3.52,6.09,3.52h278.05c3.67,0,5.48-2.46,6.09-3.52c0.61-1.06,1.83-3.86,0-7.03L221.09,91.08
		C219.26,87.91,216.22,87.57,215,87.57z"/>
	<g>
		<path class="st3" d="M217.7,264.59h-5.41c-10.6,0-19.3-8.29-19.82-18.88l-2.83-57.89c-0.3-6.18,1.88-12.06,6.15-16.54
			c4.27-4.48,10.03-6.95,16.22-6.95h5.96c6.19,0,11.95,2.47,16.22,6.95c4.27,4.48,6.45,10.36,6.15,16.54l-2.83,57.89
			C237.01,256.3,228.3,264.59,217.7,264.59z M212.02,176.33c-2.87,0-5.55,1.15-7.53,3.23c-1.98,2.08-3,4.81-2.86,7.68l2.83,57.89
			c0.2,4.18,3.65,7.46,7.83,7.46h5.41c4.19,0,7.63-3.28,7.83-7.46l2.83-57.89c0.14-2.87-0.87-5.6-2.86-7.68
			c-1.98-2.08-4.65-3.23-7.53-3.23H212.02z"/>
		<path class="st3" d="M215,322.33c-12.05,0-21.85-9.8-21.85-21.85s9.8-21.85,21.85-21.85s21.85,9.8,21.85,21.85
			S227.05,322.33,215,322.33z M215,290.63c-5.43,0-9.85,4.42-9.85,9.85s4.42,9.85,9.85,9.85s9.85-4.42,9.85-9.85
			S220.43,290.63,215,290.63z"/>
	</g>
</g>
</svg>
