<?xml version="1.0" encoding="utf-8"?>
<!-- Generator: Adobe Illustrator 24.1.2, SVG Export Plug-In . SVG Version: 6.00 Build 0)  -->
<svg version="1.1" id="Warstwa_3" xmlns="http://www.w3.org/2000/svg" xmlns:xlink="http://www.w3.org/1999/xlink" x="0px" y="0px"
	 viewBox="0 0 430 430" style="enable-background:new 0 0 430 430;" xml:space="preserve">
<style type="text/css">
	.st0{fill:#08a88a;}
	.st1{fill:#121331;}
	.st2{fill:none;}
	.st3{fill:#08a88a;fill-opacity:0;}
</style>
<g>
	<path class="st0" d="M215,113.21c-3.48,0-6.3-2.82-6.3-6.3V55.54c0-3.48,2.82-6.3,6.3-6.3s6.3,2.82,6.3,6.3v51.37
		C221.3,110.39,218.48,113.21,215,113.21z"/>
	<path class="st1" d="M120.8,206.77H54.88c-2.09,0-4.04-1.03-5.21-2.76c-1.17-1.73-1.41-3.92-0.64-5.86l26.69-67.19
		c0.95-2.4,3.27-3.97,5.85-3.97l104.91-0.14l24.74-24.41c2.46-2.43,6.43-2.42,8.88,0.03l24.52,24.52h103.82
		c2.56,0,4.87,1.55,5.84,3.93l26.69,65.78c0.79,1.94,0.56,4.15-0.61,5.89c-1.17,1.74-3.13,2.78-5.23,2.78h-67.34
		c-1.67,0-3.27-0.66-4.45-1.84l-64.75-64.75c-0.99-0.56-1.81-1.38-2.37-2.37l-20.6-20.6l-22.07,21.78c-0.03,0.03-0.07,0.07-0.1,0.1
		l-68.21,67.29C124.05,206.12,122.46,206.77,120.8,206.77z M64.16,194.17h54.06l55.46-54.72l-87.84,0.12L64.16,194.17z
		 M310.39,192.75h55.37l-21.57-53.18h-86.98L310.39,192.75z"/>
	<path class="st0" d="M255.35,380.12h-80.7c-3.48,0-6.3-2.82-6.3-6.3v-66.44c0-25.72,20.93-46.65,46.65-46.65
		s46.65,20.93,46.65,46.65v66.44C261.65,377.3,258.83,380.12,255.35,380.12z M180.95,367.52h68.1v-60.14
		c0-18.78-15.27-34.05-34.05-34.05s-34.05,15.27-34.05,34.05V367.52z"/>
	<path class="st0" d="M215,380.12c-3.48,0-6.3-2.82-6.3-6.3V269.78c0-3.48,2.82-6.3,6.3-6.3s6.3,2.82,6.3,6.3v104.04
		C221.3,377.3,218.48,380.12,215,380.12z"/>
	<path class="st1" d="M348.43,380.76H81.57c-3.48,0-6.3-2.82-6.3-6.3V200.47c0-3.48,2.82-6.3,6.3-6.3s6.3,2.82,6.3,6.3v167.69
		h254.27V200.47c0-3.48,2.82-6.3,6.3-6.3s6.3,2.82,6.3,6.3v173.99C354.73,377.94,351.91,380.76,348.43,380.76z"/>
	<path class="st0" d="M215,219.96c-18.19,0-32.99-14.8-32.99-32.99c0-18.19,14.8-32.99,32.99-32.99s32.99,14.8,32.99,32.99
		C247.99,205.16,233.19,219.96,215,219.96z M215,166.58c-11.24,0-20.39,9.15-20.39,20.39c0,11.24,9.15,20.39,20.39,20.39
		s20.39-9.15,20.39-20.39C235.39,175.73,226.24,166.58,215,166.58z"/>
	<path class="st0" d="M148.28,280h-40.03c-3.48,0-6.3-2.82-6.3-6.3v-20.01c0-14.51,11.8-26.31,26.31-26.31s26.31,11.8,26.31,26.31
		v20.01C154.58,277.18,151.76,280,148.28,280z M114.55,267.4h27.43v-13.71c0-7.56-6.15-13.71-13.72-13.71s-13.72,6.15-13.72,13.71
		V267.4z"/>
	<path class="st0" d="M321.75,280h-40.03c-3.48,0-6.3-2.82-6.3-6.3v-20.01c0-14.51,11.8-26.31,26.31-26.31s26.31,11.8,26.31,26.31
		v20.01C328.05,277.18,325.23,280,321.75,280z M288.02,267.4h27.43v-13.71c0-7.56-6.15-13.71-13.72-13.71s-13.72,6.15-13.72,13.71
		V267.4z"/>
	<path class="st0" d="M255.35,88.52H215c-3.48,0-6.3-2.82-6.3-6.3V55.54c0-3.48,2.82-6.3,6.3-6.3h40.35c2.49,0,4.74,1.46,5.75,3.74
		c1.01,2.27,0.59,4.93-1.07,6.78l-8.21,9.13l8.21,9.13c1.66,1.85,2.08,4.5,1.07,6.78C260.09,87.06,257.84,88.52,255.35,88.52z
		 M221.3,75.92h19.91l-2.54-2.83c-2.15-2.4-2.15-6.03,0-8.43l2.55-2.83H221.3V75.92z"/>
	<path class="st1" d="M347.5,380.14c-3.48,0-6.3-2.82-6.3-6.29l-0.13-173.75c0-3.48,2.82-6.3,6.3-6.3c0,0,0,0,0,0
		c3.48,0,6.3,2.82,6.3,6.29l0.13,173.75C353.8,377.32,350.98,380.14,347.5,380.14C347.5,380.14,347.5,380.14,347.5,380.14z
		 M373.5,205.65c-2.54,0-4.94-1.55-5.89-4.07l-24.22-63.94c-1.05-1.13-1.69-2.63-1.69-4.29c0-3.48,2.82-6.3,6.3-6.3h0.5
		c2.62,0,4.96,1.62,5.89,4.07l25,66c1.23,3.25-0.41,6.89-3.66,8.12C375,205.51,374.24,205.65,373.5,205.65z M243.5,139.39
		c-1.57,0-3.15-0.59-4.37-1.76l-26.55-25.59c-1.87-1.09-3.13-3.12-3.13-5.45v-0.25c0-2.53,1.51-4.81,3.84-5.8
		c2.33-0.99,5.02-0.49,6.84,1.26l27.75,26.75c2.51,2.42,2.58,6.4,0.16,8.91C246.8,138.75,245.15,139.39,243.5,139.39z"/>
</g>
</svg>
