<?xml version="1.0" encoding="utf-8"?>
<!-- Generator: Adobe Illustrator 24.1.2, SVG Export Plug-In . SVG Version: 6.00 Build 0)  -->
<svg version="1.1" id="outline" xmlns="http://www.w3.org/2000/svg" xmlns:xlink="http://www.w3.org/1999/xlink" x="0px" y="0px"
	 viewBox="0 0 430 430" style="enable-background:new 0 0 430 430;" xml:space="preserve">
<style type="text/css">
	.st0{fill:#121331;}
	.st1{fill:none;stroke:#121331;stroke-width:12;stroke-miterlimit:10;}
	.st2{fill:#08a88a;}
	.st3{fill:none;stroke:#121331;stroke-width:12;stroke-linecap:round;stroke-linejoin:round;stroke-miterlimit:10;}
	.st4{fill:none;stroke:#08a88a;stroke-width:12;stroke-linecap:round;stroke-linejoin:round;stroke-miterlimit:10;}
</style>
<g>
	<path class="st0" d="M214.95,411.22h-54.16c-2.06,0-3.97-1.05-5.07-2.79c-2.55-4.03-3.23-8.54-1.95-13.04
		c2.59-9.16,12.92-16.26,18.49-19.51l-3.12-152.37c-0.07-3.31,2.56-6.05,5.88-6.12c0.04,0,0.08,0,0.13,0c3.26,0,5.93,2.61,6,5.88
		l3.19,156.02c0.05,2.33-1.26,4.48-3.36,5.51c-4.45,2.2-14.14,8.48-15.66,13.87c-0.05,0.19-0.1,0.38-0.13,0.56h43.76l0.02-137.82
		c0-3.31,2.69-6,6-6c0,0,0,0,0,0c3.31,0,6,2.69,6,6l-0.02,143.82C220.95,408.54,218.26,411.22,214.95,411.22z"/>
	<path class="st0" d="M269.17,411.22h-54.16c-3.31,0-6-2.69-6-6l-0.02-143.82c0-3.31,2.69-6,6-6c3.31,0,6,2.69,6,6l0.02,137.82
		h43.76c-0.03-0.18-0.07-0.37-0.13-0.56c-1.51-5.39-11.21-11.67-15.67-13.87c-2.09-1.03-3.4-3.18-3.35-5.51l3.21-156.02
		c0.07-3.31,2.83-5.94,6.12-5.88c3.31,0.07,5.94,2.81,5.88,6.12l-3.14,152.37c5.57,3.25,15.9,10.35,18.49,19.51
		c1.27,4.5,0.6,9.01-1.96,13.04C273.13,410.17,271.22,411.22,269.17,411.22z"/>
	<path class="st0" d="M230.27,96.43h-19.71c-14.92,0-27.05-12.14-27.05-27.05V52.24c0-14.92,12.14-27.05,27.05-27.05h4.95
		c14.92,0,27.05,12.14,27.05,27.05v31.9C242.56,90.92,237.05,96.43,230.27,96.43z M210.56,37.19c-8.3,0-15.05,6.75-15.05,15.05
		v17.14c0,8.3,6.75,15.05,15.05,15.05h19.71c0.15,0,0.3-0.15,0.3-0.3v-31.9c0-8.3-6.75-15.05-15.05-15.05H210.56z"/>
	<path class="st2" d="M254.84,229.39h-79.71c-3.31,0-6-2.68-6-6l-0.04-73.69c0-3.31,2.68-6,6-6c0,0,0,0,0,0c3.31,0,6,2.68,6,6
		l0.04,67.69h67.71v-67.69c0-3.31,2.69-6,6-6s6,2.69,6,6v73.69C260.84,226.7,258.16,229.39,254.84,229.39z"/>
	<path class="st2" d="M175.1,155.69c-1.87,0-3.72-0.87-4.89-2.51L87.51,37.43c-1.66-2.32-1.45-5.49,0.49-7.58
		c0.48-0.51,11.83-12.52,25.85-10.93c8.41,0.95,15.57,6.36,21.29,16.07l63.51,84.53c1.99,2.65,1.46,6.41-1.19,8.4
		c-2.65,1.99-6.41,1.46-8.4-1.19l-63.72-84.81c-0.14-0.19-0.27-0.39-0.39-0.6c-3.73-6.44-7.92-9.97-12.44-10.48
		c-4.35-0.49-8.87,1.82-12.04,4.07l79.52,111.29c1.93,2.7,1.3,6.44-1.39,8.37C177.53,155.33,176.31,155.69,175.1,155.69z"/>
	<path class="st2" d="M254.84,155.69c-1.21,0-2.43-0.36-3.48-1.12c-2.7-1.93-3.32-5.67-1.39-8.37l79.57-111.28
		c-3.19-2.27-7.72-4.58-12.08-4.07c-4.51,0.53-8.68,4.05-12.4,10.47c-0.12,0.21-0.25,0.4-0.39,0.59l-63.71,84.81
		c-1.99,2.65-5.75,3.18-8.4,1.19c-2.65-1.99-3.18-5.75-1.19-8.4l63.5-84.53c5.72-9.71,12.88-15.12,21.3-16.07
		c14-1.58,25.37,10.42,25.85,10.93c1.95,2.09,2.15,5.26,0.49,7.58l-82.76,115.74C258.55,154.81,256.71,155.69,254.84,155.69z"/>
	<path class="st2" d="M236.15,129.13h-42.29c-3.31,0-6-2.69-6-6s2.69-6,6-6h42.29c3.31,0,6,2.69,6,6S239.46,129.13,236.15,129.13z"
		/>
</g>
</svg>
