<?xml version="1.0" encoding="utf-8"?>
<!-- Generator: Adobe Illustrator 24.1.2, SVG Export Plug-In . SVG Version: 6.00 Build 0)  -->
<svg version="1.1" id="Warstwa_3" xmlns="http://www.w3.org/2000/svg" xmlns:xlink="http://www.w3.org/1999/xlink" x="0px" y="0px"
	 viewBox="0 0 430 430" style="enable-background:new 0 0 430 430;" xml:space="preserve">
<style type="text/css">
	.st0{fill:#121331;}
	.st1{fill:#08a88a;}
	.st2{fill:none;stroke:#121331;stroke-width:12;stroke-linecap:round;stroke-linejoin:round;stroke-miterlimit:10;}
	.st3{fill:#08a88a;}
</style>
<g>
	<path class="st3" d="M217.63,255.1c-14.41-3.98-18.48-6.22-17.72-13.35c0.46-4.33,4.13-8.44,8.92-10
		c8.93-2.89,19.97,1.77,25.14,10.62c1.67,2.86,5.35,3.83,8.21,2.15c2.86-1.67,3.82-5.35,2.15-8.21
		c-5.16-8.83-13.97-14.82-23.4-16.74v-12.62c0-3.31-2.69-6-6-6s-6,2.69-6,6v12.43c-1.28,0.23-2.56,0.55-3.81,0.95
		c-9.3,3.02-16.2,11.11-17.16,20.14c-1.95,18.33,14.47,22.87,26.46,26.18c13.56,3.75,19.49,6.23,19.29,14.26
		c-0.07,2.69-1.58,5.52-4.04,7.55c-3.08,2.54-6.98,3.49-9.71,3.84c-9.3,1.18-19.16-2.92-25.13-10.45c-2.06-2.6-5.83-3.03-8.43-0.97
		c-2.6,2.06-3.03,5.83-0.97,8.43c5.97,7.52,14.39,12.56,23.49,14.4v12.72c0,3.31,2.69,6,6,6s6-2.69,6-6v-12.18
		c0.18-0.02,0.37-0.03,0.55-0.05c6.17-0.78,11.65-3.03,15.84-6.49c5.1-4.22,8.24-10.39,8.39-16.51
		C246.17,262.99,229.67,258.43,217.63,255.1z"/>
	<path class="st0" d="M321.98,285.41v-47.64c0.08-0.38,0.12-0.77,0.12-1.18s-0.04-0.8-0.12-1.18v-47.72c0-9.92-8.08-18-18-18h-22.03
		v-32.09c0-33.81-27.5-61.31-61.31-61.31h-11.41c-33.81,0-61.31,27.5-61.31,61.31v32.09H125.9c-9.92,0-18,8.08-18,18v148.03
		c0,9.92,8.08,18,18,18h178.09c9.92,0,18-8.08,18-18v-47.95c0.08-0.38,0.12-0.77,0.12-1.18S322.06,285.79,321.98,285.41z
		 M159.93,137.59c0-27.19,22.12-49.31,49.31-49.31h11.41c27.19,0,49.31,22.12,49.31,49.31v32.09H159.93V137.59z M303.98,341.72
		H125.9c-3.31,0-6-2.69-6-6v-43.13h18.98c3.31,0,6-2.69,6-6s-2.69-6-6-6H119.9v-38h18.98c3.31,0,6-2.69,6-6s-2.69-6-6-6H119.9v-42.9
		c0-3.31,2.69-6,6-6h28.03h122.03h28.03c3.31,0,6,2.69,6,6v42.9h-18.74c-3.31,0-6,2.69-6,6s2.69,6,6,6h18.74v38h-18.74
		c-3.31,0-6,2.69-6,6s2.69,6,6,6h18.74v43.13C309.98,339.03,307.29,341.72,303.98,341.72z"/>
</g>
</svg>
